# Blender v2.83.2 OBJ File: 'TestObject5.blend'
# www.blender.org
mtllib TestObject5.mtl
o Cube_Cube.002
v -0.500000 -0.500000 0.500000
v -0.500000 0.500000 0.500000
v -0.500000 -0.500000 -0.500000
v 0.500000 -0.500000 0.500000
v 0.500000 0.500000 0.500000
v 0.500000 -0.500000 -0.500000
v 0.500000 0.500000 -0.500000
v -0.500000 0.500000 0.000000
v 0.000000 0.500000 -0.500000
v 0.000000 -0.500000 -0.500000
vt 0.000000 0.000000
vt 0.000000 0.000000
vt 0.000000 0.000000
vt 0.000000 0.000000
vt 0.000000 0.000000
vt 0.000000 0.000000
vt 0.000000 0.000000
vt 0.000000 0.000000
vt 0.000000 0.000000
vt 0.000000 0.000000
vn -0.8165 -0.4082 0.4082
vn 0.8944 0.0000 -0.4472
vn 0.0000 0.0000 1.0000
vn 1.0000 0.0000 0.0000
vn 0.4851 0.7276 0.4851
vn 0.0000 0.0000 -1.0000
vn 0.7071 0.7071 0.0000
vn 0.0000 1.0000 0.0000
vn -0.6667 0.3333 -0.6667
vn -1.0000 0.0000 0.0000
vn 0.0000 -1.0000 0.0000
usemtl None
s off
f 6/1/1 5/2/1 9/3/1
f 9/3/2 4/4/2 10/5/2
f 4/4/3 2/6/3 1/7/3
f 7/8/4 5/2/4 6/1/4
f 8/9/5 4/4/5 9/3/5
f 7/8/6 6/1/6 9/3/6
f 4/4/7 8/9/7 2/6/7
f 9/3/8 5/2/8 7/8/8
f 9/3/6 10/5/6 3/10/6
f 9/3/9 3/10/9 8/9/9
f 8/9/10 3/10/10 1/7/10 2/6/10
f 4/4/11 1/7/11 3/10/11 10/5/11
